<svg class="svg-icon" style="width: 50em; height: 50em;vertical-align: middle;fill: currentColor;overflow: hidden;color:black;" viewBox="-80 -80 1184 1184" version="1.1" xmlns="http://www.w3.org/2000/svg"><path stroke="black" stroke-width="80" d="M887.466667 972.8H153.6C71.68 972.8 0 901.12 0 819.2V375.466667c0-85.333333 61.44-153.6 136.533333-153.6h290.133334c27.306667 0 64.853333-17.066667 75.093333-37.546667l37.546667-75.093333c17.066667-34.133333 51.2-58.026667 92.16-58.026667H887.466667c44.373333 0 71.68 27.306667 92.16 47.786667 10.24 10.24 20.48 37.546667 27.306666 47.786666 17.066667 51.2 17.066667 116.053333 17.066667 170.666667V819.2c0 85.333333-61.44 153.6-136.533333 153.6zM136.533333 256c-64.853333 0-102.4 61.44-102.4 119.466667v443.733333c0 61.44 58.026667 119.466667 119.466667 119.466667H887.466667c64.853333 0 102.4-61.44 102.4-119.466667V317.44c0-51.2 0-112.64-17.066667-157.013333-3.413333-10.24-13.653333-34.133333-20.48-37.546667-20.48-23.893333-40.96-34.133333-64.853333-34.133333h-256c-27.306667 0-47.786667 13.653333-61.44 37.546666l-37.546667 75.093334c-17.066667 34.133333-68.266667 58.026667-105.813333 58.026666L136.533333 256z" fill="" /><path stroke="black" stroke-width="80" d="M989.866667 256H392.533333c-10.24 0-17.066667-6.826667-17.066666-17.066667s6.826667-17.066667 17.066666-17.066666H989.866667c10.24 0 17.066667 6.826667 17.066666 17.066666s-6.826667 17.066667-17.066666 17.066667zM628.053333 802.133333H337.92c-54.613333 0-98.986667-44.373333-98.986667-102.4 0-51.2 34.133333-92.16 81.92-102.4 0-95.573333 75.093333-170.666667 163.84-170.666666 75.093333 0 136.533333 47.786667 157.013334 119.466666 61.44 10.24 105.813333 61.44 105.813333 126.293334 3.413333 71.68-51.2 129.706667-119.466667 129.706666z m-290.133333-170.666666c-34.133333 0-64.853333 30.72-64.853333 68.266666s30.72 68.266667 64.853333 68.266667h286.72c51.2 0 88.746667-40.96 88.746667-95.573333 0-51.2-37.546667-92.16-85.333334-92.16-6.826667 0-13.653333-6.826667-17.066666-13.653334-13.653333-61.44-64.853333-105.813333-126.293334-105.813333-71.68 0-129.706667 61.44-129.706666 136.533333v13.653334c0 6.826667 0 10.24-3.413334 13.653333-3.413333 6.826667-10.24 6.826667-13.653333 6.826667z" fill="" /></svg>