<svg fill="none" height="24" viewBox="0 0 24 24" width="24" xmlns="http://www.w3.org/2000/svg"><g stroke="#292d32" stroke-linecap="round" stroke-linejoin="round"><path d="m17.98 10.79v4c0 .26-.01.51-.04.75-.23 2.7-1.82 4.04-4.75 4.04h-.4c-.25 0-.49.12-.64.32l-1.2 1.6c-.53.71-1.39.71-1.92 0l-1.20001-1.6c-.13-.17-.41999-.32-.63999-.32h-.39999c-3.19 0-4.79001-.79-4.79001-4.79v-4c0-2.92999 1.35001-4.51999 4.04001-4.74999.24-.03.49-.04001.75-.04001h6.39999c3.19 0 4.79 1.60001 4.79 4.79z" stroke-miterlimit="10" stroke-width="1.5"/><path d="m21.98 6.79001v3.99999c0 2.94-1.35 4.52-4.04 4.75.03-.24.04-.49.04-.75v-4c0-3.18999-1.6-4.79-4.79-4.79h-6.39996c-.26 0-.51.01001-.75.04001.23-2.69 1.82-4.04001 4.74996-4.04001h6.4c3.19 0 4.79 1.60001 4.79 4.79001z" stroke-miterlimit="10" stroke-width="1.5"/><g stroke-width="2"><path d="m13.4955 13.25h.009"/><path d="m9.9955 13.25h.009"/><path d="m6.4955 13.25h.009"/></g></g></svg>